<?xml version="1.0" encoding="UTF-8" standalone="no"?>
<!-- Created with Inkscape (http://www.inkscape.org/) -->

<svg
   xmlns:dc="http://purl.org/dc/elements/1.1/"
   xmlns:cc="http://creativecommons.org/ns#"
   xmlns:rdf="http://www.w3.org/1999/02/22-rdf-syntax-ns#"
   xmlns:svg="http://www.w3.org/2000/svg"
   xmlns="http://www.w3.org/2000/svg"
   xmlns:sodipodi="http://sodipodi.sourceforge.net/DTD/sodipodi-0.dtd"
   xmlns:inkscape="http://www.inkscape.org/namespaces/inkscape"
   width="27.056mm"
   height="49.43mm"
   viewBox="0 0 27.056 49.43"
   version="1.1"
   id="svg401"
   inkscape:version="0.92.3 (unknown)"
   sodipodi:docname="bishop_white.svg">
  <defs
     id="defs395" />
  <sodipodi:namedview
     id="base"
     pagecolor="#ffffff"
     bordercolor="#666666"
     borderopacity="1.0"
     inkscape:pageopacity="0.0"
     inkscape:pageshadow="2"
     inkscape:zoom="0.35"
     inkscape:cx="400"
     inkscape:cy="560"
     inkscape:document-units="mm"
     inkscape:current-layer="layer1"
     showgrid="false"
     inkscape:window-width="1535"
     inkscape:window-height="876"
     inkscape:window-x="65"
     inkscape:window-y="24"
     inkscape:window-maximized="1" />
  <metadata
     id="metadata398">
    <rdf:RDF>
      <cc:Work
         rdf:about="">
        <dc:format>image/svg+xml</dc:format>
        <dc:type
           rdf:resource="http://purl.org/dc/dcmitype/StillImage" />
        <dc:title></dc:title>
      </cc:Work>
    </rdf:RDF>
  </metadata>
  <g
     inkscape:label="Layer 1"
     inkscape:groupmode="layer"
     id="layer1"
     transform="translate(0,-247.57)">
    <g
       transform="matrix(0.26458333,0,0,0.26458333,-32.641572,184.2875)"
       id="g5823">
      <path
         d="m 174,269.40266 -9.5,-7.47567 v -18.4815 q 0,-3.94549 9.5,-3.94549 9.5,0 9.5,3.94549 V 261.927 Z"
         stroke-miterlimit="10"
         pointer-events="none"
         id="path5126"
         inkscape:connector-curvature="0"
         style="fill:#808080;stroke:#80807d;stroke-width:0.64444917;stroke-miterlimit:10;stroke-opacity:1" />
      <path
         style="fill:#808080;stroke:#80807d;stroke-miterlimit:10;stroke-opacity:1"
         inkscape:connector-curvature="0"
         d="m 201,287 q 0,28 -28,28 -28,0 -28,-28 z"
         stroke-miterlimit="10"
         pointer-events="none"
         id="path5128" />
      <path
         style="fill:#808080;stroke:#80807d;stroke-miterlimit:10;stroke-opacity:1"
         inkscape:connector-curvature="0"
         d="m 124.5,425.5 50,-55 50,55 z"
         stroke-miterlimit="10"
         pointer-events="none"
         id="path5130" />
      <rect
         style="fill:#808080;stroke:#80807d;stroke-opacity:1"
         x="157"
         y="297"
         width="35"
         height="101"
         pointer-events="none"
         id="rect5132" />
      <path
         style="fill:#808080;stroke:#80807d;stroke-opacity:1"
         d="m 173.275,252.53678 a 30,30 0 0 0 -18.68945,6.53516 l 14.35547,24.86524 -4.33204,2.5 -13.74218,-23.80274 a 30,30 0 0 0 -7.5918,19.90234 30,30 0 0 0 30,30 30,30 0 0 0 30,-30 30,30 0 0 0 -30,-30 z"
         id="path5134"
         inkscape:connector-curvature="0" />
      <path
         style="fill:#808080;stroke:#80807d;stroke-miterlimit:10;stroke-opacity:1"
         inkscape:connector-curvature="0"
         d="m 135.5,340.5 39.5,-30 39.5,30 z"
         stroke-miterlimit="10"
         pointer-events="none"
         id="path5136" />
    </g>
  </g>
</svg>
